%TF.GenerationSoftware,KiCad,Pcbnew,7.0.11+dfsg-1build4*%
%TF.CreationDate,2026-09-16T04:08:54+05:30*%
%TF.ProjectId,robotic_arm_motherboard,726f626f-7469-4635-9f61-726d5f6d6f74,rev?*%
%TF.SameCoordinates,Original*%
%TF.FileFunction,Soldermask,Bot*%
%TF.FilePolarity,Negative*%
%FSLAX46Y46*%
G04 Gerber Fmt 4.6, Leading zero omitted, Abs format (unit mm)*
G04 Created by KiCad (PCBNEW 7.0.11+dfsg-1build4) date 2026-09-16 04:08:54*
%MOMM*%
%LPD*%
G01*
G04 APERTURE LIST*
%ADD10R,3.800000X3.800000*%
%ADD11C,4.000000*%
%ADD12C,6.400000*%
%ADD13C,5.400000*%
%ADD14R,1.700000X1.700000*%
%ADD15O,1.700000X1.700000*%
%ADD16R,2.000000X2.000000*%
%ADD17C,2.000000*%
G04 APERTURE END LIST*
D10*
%TO.C,J_SERVO_PWR*%
X48000000Y-10000000D03*
D11*
X53000000Y-10000000D03*
%TD*%
D12*
%TO.C,MH2*%
X96000000Y-4000000D03*
%TD*%
D13*
%TO.C,MH_PCA2*%
X93520000Y-11560000D03*
%TD*%
D14*
%TO.C,J_I2C_EXP*%
X32000000Y-56000000D03*
D15*
X32000000Y-58540000D03*
X32000000Y-61080000D03*
X32000000Y-63620000D03*
%TD*%
D12*
%TO.C,MH3*%
X4000000Y-76000000D03*
%TD*%
D16*
%TO.C,C1*%
X48000000Y-22000000D03*
D17*
X53000000Y-22000000D03*
%TD*%
D13*
%TO.C,MH_PCA1*%
X74480000Y-11560000D03*
%TD*%
D14*
%TO.C,J_ESP32_LEFT*%
X8000000Y-11000000D03*
D15*
X8000000Y-13540000D03*
X8000000Y-16080000D03*
X8000000Y-18620000D03*
X8000000Y-21160000D03*
X8000000Y-23700000D03*
X8000000Y-26240000D03*
X8000000Y-28780000D03*
X8000000Y-31320000D03*
X8000000Y-33860000D03*
X8000000Y-36400000D03*
X8000000Y-38940000D03*
X8000000Y-41480000D03*
X8000000Y-44020000D03*
X8000000Y-46560000D03*
%TD*%
D14*
%TO.C,J_PCA9685_CTRL*%
X84000000Y-16000000D03*
D15*
X86540000Y-16000000D03*
X89080000Y-16000000D03*
X91620000Y-16000000D03*
X94160000Y-16000000D03*
X96700000Y-16000000D03*
%TD*%
D14*
%TO.C,J_ESTOP*%
X45000000Y-62000000D03*
D15*
X45000000Y-64540000D03*
%TD*%
D14*
%TO.C,J_PCA9685_AUX*%
X84000000Y-63000000D03*
D15*
X86540000Y-63000000D03*
X89080000Y-63000000D03*
X91620000Y-63000000D03*
X94160000Y-63000000D03*
X96700000Y-63000000D03*
%TD*%
D13*
%TO.C,MH_PCA4*%
X93520000Y-67440000D03*
%TD*%
D12*
%TO.C,MH1*%
X4000000Y-4000000D03*
%TD*%
D14*
%TO.C,J_UART*%
X45000000Y-48000000D03*
D15*
X45000000Y-50540000D03*
X45000000Y-53080000D03*
X45000000Y-55620000D03*
%TD*%
D14*
%TO.C,J_SRV_EN*%
X52000000Y-62000000D03*
D15*
X52000000Y-64540000D03*
%TD*%
D12*
%TO.C,MH4*%
X96000000Y-76000000D03*
%TD*%
D14*
%TO.C,J_GPIO_EXP*%
X56000000Y-48000000D03*
D15*
X56000000Y-50540000D03*
X56000000Y-53080000D03*
X56000000Y-55620000D03*
X56000000Y-58160000D03*
X56000000Y-60700000D03*
X56000000Y-63240000D03*
X56000000Y-65780000D03*
X56000000Y-68320000D03*
X56000000Y-70860000D03*
%TD*%
D14*
%TO.C,J_VL53_2*%
X19000000Y-56000000D03*
D15*
X19000000Y-58540000D03*
X19000000Y-61080000D03*
X19000000Y-63620000D03*
X19000000Y-66160000D03*
%TD*%
D14*
%TO.C,J_ESP32_RIGHT*%
X33400000Y-11000000D03*
D15*
X33400000Y-13540000D03*
X33400000Y-16080000D03*
X33400000Y-18620000D03*
X33400000Y-21160000D03*
X33400000Y-23700000D03*
X33400000Y-26240000D03*
X33400000Y-28780000D03*
X33400000Y-31320000D03*
X33400000Y-33860000D03*
X33400000Y-36400000D03*
X33400000Y-38940000D03*
X33400000Y-41480000D03*
X33400000Y-44020000D03*
X33400000Y-46560000D03*
%TD*%
D13*
%TO.C,MH_PCA3*%
X74480000Y-67440000D03*
%TD*%
D14*
%TO.C,J_VL53_1*%
X10000000Y-56000000D03*
D15*
X10000000Y-58540000D03*
X10000000Y-61080000D03*
X10000000Y-63620000D03*
X10000000Y-66160000D03*
%TD*%
M02*
