%TF.GenerationSoftware,KiCad,Pcbnew,7.0.11+dfsg-1build4*%
%TF.CreationDate,2026-09-16T04:08:54+05:30*%
%TF.ProjectId,robotic_arm_motherboard,726f626f-7469-4635-9f61-726d5f6d6f74,rev?*%
%TF.SameCoordinates,Original*%
%TF.FileFunction,Copper,L1,Top*%
%TF.FilePolarity,Positive*%
%FSLAX46Y46*%
G04 Gerber Fmt 4.6, Leading zero omitted, Abs format (unit mm)*
G04 Created by KiCad (PCBNEW 7.0.11+dfsg-1build4) date 2026-09-16 04:08:54*
%MOMM*%
%LPD*%
G01*
G04 APERTURE LIST*
G04 Aperture macros list*
%AMRoundRect*
0 Rectangle with rounded corners*
0 $1 Rounding radius*
0 $2 $3 $4 $5 $6 $7 $8 $9 X,Y pos of 4 corners*
0 Add a 4 corners polygon primitive as box body*
4,1,4,$2,$3,$4,$5,$6,$7,$8,$9,$2,$3,0*
0 Add four circle primitives for the rounded corners*
1,1,$1+$1,$2,$3*
1,1,$1+$1,$4,$5*
1,1,$1+$1,$6,$7*
1,1,$1+$1,$8,$9*
0 Add four rect primitives between the rounded corners*
20,1,$1+$1,$2,$3,$4,$5,0*
20,1,$1+$1,$4,$5,$6,$7,0*
20,1,$1+$1,$6,$7,$8,$9,0*
20,1,$1+$1,$8,$9,$2,$3,0*%
G04 Aperture macros list end*
%TA.AperFunction,SMDPad,CuDef*%
%ADD10C,1.500000*%
%TD*%
%TA.AperFunction,SMDPad,CuDef*%
%ADD11RoundRect,0.225000X-0.225000X-0.250000X0.225000X-0.250000X0.225000X0.250000X-0.225000X0.250000X0*%
%TD*%
%TA.AperFunction,SMDPad,CuDef*%
%ADD12RoundRect,0.250000X-0.375000X-0.625000X0.375000X-0.625000X0.375000X0.625000X-0.375000X0.625000X0*%
%TD*%
%TA.AperFunction,SMDPad,CuDef*%
%ADD13RoundRect,0.200000X-0.200000X-0.275000X0.200000X-0.275000X0.200000X0.275000X-0.200000X0.275000X0*%
%TD*%
%TA.AperFunction,SMDPad,CuDef*%
%ADD14RoundRect,0.375000X-0.625000X-0.375000X0.625000X-0.375000X0.625000X0.375000X-0.625000X0.375000X0*%
%TD*%
%TA.AperFunction,SMDPad,CuDef*%
%ADD15RoundRect,0.500000X-0.500000X-1.400000X0.500000X-1.400000X0.500000X1.400000X-0.500000X1.400000X0*%
%TD*%
%TA.AperFunction,ComponentPad*%
%ADD16R,3.800000X3.800000*%
%TD*%
%TA.AperFunction,ComponentPad*%
%ADD17C,4.000000*%
%TD*%
%TA.AperFunction,ComponentPad*%
%ADD18C,6.400000*%
%TD*%
%TA.AperFunction,ComponentPad*%
%ADD19C,5.400000*%
%TD*%
%TA.AperFunction,SMDPad,CuDef*%
%ADD20RoundRect,0.250000X-0.250000X-0.475000X0.250000X-0.475000X0.250000X0.475000X-0.250000X0.475000X0*%
%TD*%
%TA.AperFunction,SMDPad,CuDef*%
%ADD21RoundRect,0.243750X-0.243750X-0.456250X0.243750X-0.456250X0.243750X0.456250X-0.243750X0.456250X0*%
%TD*%
%TA.AperFunction,SMDPad,CuDef*%
%ADD22RoundRect,0.250000X-1.000000X-0.650000X1.000000X-0.650000X1.000000X0.650000X-1.000000X0.650000X0*%
%TD*%
%TA.AperFunction,ComponentPad*%
%ADD23R,1.700000X1.700000*%
%TD*%
%TA.AperFunction,ComponentPad*%
%ADD24O,1.700000X1.700000*%
%TD*%
%TA.AperFunction,ComponentPad*%
%ADD25R,2.000000X2.000000*%
%TD*%
%TA.AperFunction,ComponentPad*%
%ADD26C,2.000000*%
%TD*%
%TA.AperFunction,Conductor*%
%ADD27C,2.000000*%
%TD*%
%TA.AperFunction,Conductor*%
%ADD28C,0.500000*%
%TD*%
%TA.AperFunction,Conductor*%
%ADD29C,0.300000*%
%TD*%
G04 APERTURE END LIST*
D10*
%TO.P,TP1,1*%
%TO.N,+3V3*%
X8000000Y-70000000D03*
%TD*%
D11*
%TO.P,C6,1*%
%TO.N,+3V3*%
X43225000Y-34000000D03*
%TO.P,C6,2*%
%TO.N,GND*%
X44775000Y-34000000D03*
%TD*%
D12*
%TO.P,F1,1*%
%TO.N,SERVO_V+*%
X56600000Y-10000000D03*
%TO.P,F1,2*%
X59400000Y-10000000D03*
%TD*%
D13*
%TO.P,R7,1*%
%TO.N,+3V3*%
X57175000Y-62000000D03*
%TO.P,R7,2*%
%TO.N,OE*%
X58825000Y-62000000D03*
%TD*%
D14*
%TO.P,U1,1*%
%TO.N,GND*%
X54850000Y-28700000D03*
%TO.P,U1,2*%
%TO.N,+3V3*%
X54850000Y-31000000D03*
D15*
%TO.N,N/C*%
X61150000Y-31000000D03*
D14*
%TO.P,U1,3*%
%TO.N,SERVO_V+*%
X54850000Y-33300000D03*
%TD*%
D16*
%TO.P,J_SERVO_PWR,1*%
%TO.N,SERVO_V+*%
X48000000Y-10000000D03*
D17*
%TO.P,J_SERVO_PWR,2*%
%TO.N,GND*%
X53000000Y-10000000D03*
%TD*%
D18*
%TO.P,MH2,1*%
%TO.N,GND*%
X96000000Y-4000000D03*
%TD*%
D19*
%TO.P,MH_PCA2,1*%
%TO.N,GND*%
X93520000Y-11560000D03*
%TD*%
D20*
%TO.P,C2,1*%
%TO.N,SERVO_V+*%
X57050000Y-22000000D03*
%TO.P,C2,2*%
%TO.N,GND*%
X58950000Y-22000000D03*
%TD*%
D21*
%TO.P,LED3,1*%
%TO.N,+3V3*%
X64062500Y-58000000D03*
%TO.P,LED3,2*%
%TO.N,GND*%
X65937500Y-58000000D03*
%TD*%
D22*
%TO.P,D1,1*%
%TO.N,GND*%
X56000000Y-16000000D03*
%TO.P,D1,2*%
%TO.N,SERVO_V+*%
X60000000Y-16000000D03*
%TD*%
D23*
%TO.P,J_I2C_EXP,1*%
%TO.N,+3V3*%
X32000000Y-56000000D03*
D24*
%TO.P,J_I2C_EXP,2*%
%TO.N,GND*%
X32000000Y-58540000D03*
%TO.P,J_I2C_EXP,3*%
%TO.N,SDA*%
X32000000Y-61080000D03*
%TO.P,J_I2C_EXP,4*%
%TO.N,SCL*%
X32000000Y-63620000D03*
%TD*%
D18*
%TO.P,MH3,1*%
%TO.N,GND*%
X4000000Y-76000000D03*
%TD*%
D25*
%TO.P,C1,1*%
%TO.N,SERVO_V+*%
X48000000Y-22000000D03*
D26*
%TO.P,C1,2*%
%TO.N,GND*%
X53000000Y-22000000D03*
%TD*%
D13*
%TO.P,R1,1*%
%TO.N,+3V3*%
X25175000Y-54000000D03*
%TO.P,R1,2*%
%TO.N,SDA*%
X26825000Y-54000000D03*
%TD*%
%TO.P,R2,1*%
%TO.N,+3V3*%
X25175000Y-58000000D03*
%TO.P,R2,2*%
%TO.N,SCL*%
X26825000Y-58000000D03*
%TD*%
D19*
%TO.P,MH_PCA1,1*%
%TO.N,GND*%
X74480000Y-11560000D03*
%TD*%
D13*
%TO.P,R4,1*%
%TO.N,N/C*%
X64175000Y-55000000D03*
%TO.P,R4,2*%
X65825000Y-55000000D03*
%TD*%
D10*
%TO.P,TP3,1*%
%TO.N,SERVO_V+*%
X18000000Y-70000000D03*
%TD*%
D11*
%TO.P,C4,1*%
%TO.N,+3V3*%
X47225000Y-34000000D03*
%TO.P,C4,2*%
%TO.N,GND*%
X48775000Y-34000000D03*
%TD*%
D10*
%TO.P,TP6,1*%
%TO.N,SCL*%
X33000000Y-70000000D03*
%TD*%
D23*
%TO.P,J_ESP32_LEFT,1*%
%TO.N,+3V3*%
X8000000Y-11000000D03*
D24*
%TO.P,J_ESP32_LEFT,2*%
%TO.N,N/C*%
X8000000Y-13540000D03*
%TO.P,J_ESP32_LEFT,3*%
X8000000Y-16080000D03*
%TO.P,J_ESP32_LEFT,4*%
X8000000Y-18620000D03*
%TO.P,J_ESP32_LEFT,5*%
X8000000Y-21160000D03*
%TO.P,J_ESP32_LEFT,6*%
X8000000Y-23700000D03*
%TO.P,J_ESP32_LEFT,7*%
%TO.N,GPIO32*%
X8000000Y-26240000D03*
%TO.P,J_ESP32_LEFT,8*%
%TO.N,GPIO33*%
X8000000Y-28780000D03*
%TO.P,J_ESP32_LEFT,9*%
%TO.N,GPIO25*%
X8000000Y-31320000D03*
%TO.P,J_ESP32_LEFT,10*%
%TO.N,GPIO26*%
X8000000Y-33860000D03*
%TO.P,J_ESP32_LEFT,11*%
%TO.N,GPIO27*%
X8000000Y-36400000D03*
%TO.P,J_ESP32_LEFT,12*%
%TO.N,GPIO14*%
X8000000Y-38940000D03*
%TO.P,J_ESP32_LEFT,13*%
%TO.N,GPIO12*%
X8000000Y-41480000D03*
%TO.P,J_ESP32_LEFT,14*%
%TO.N,GND*%
X8000000Y-44020000D03*
%TO.P,J_ESP32_LEFT,15*%
%TO.N,GPIO13*%
X8000000Y-46560000D03*
%TD*%
D21*
%TO.P,LED1,1*%
%TO.N,+3V3*%
X64062500Y-46000000D03*
%TO.P,LED1,2*%
%TO.N,GND*%
X65937500Y-46000000D03*
%TD*%
D23*
%TO.P,J_PCA9685_CTRL,1*%
%TO.N,GND*%
X84000000Y-16000000D03*
D24*
%TO.P,J_PCA9685_CTRL,2*%
%TO.N,OE*%
X86540000Y-16000000D03*
%TO.P,J_PCA9685_CTRL,3*%
%TO.N,SCL*%
X89080000Y-16000000D03*
%TO.P,J_PCA9685_CTRL,4*%
%TO.N,SDA*%
X91620000Y-16000000D03*
%TO.P,J_PCA9685_CTRL,5*%
%TO.N,+3V3*%
X94160000Y-16000000D03*
%TO.P,J_PCA9685_CTRL,6*%
%TO.N,SERVO_V+*%
X96700000Y-16000000D03*
%TD*%
D10*
%TO.P,TP2,1*%
%TO.N,5V_LOGIC*%
X13000000Y-70000000D03*
%TD*%
D21*
%TO.P,LED4,1*%
%TO.N,OE*%
X64062500Y-64000000D03*
%TO.P,LED4,2*%
%TO.N,GND*%
X65937500Y-64000000D03*
%TD*%
D10*
%TO.P,TP5,1*%
%TO.N,SDA*%
X28000000Y-70000000D03*
%TD*%
D21*
%TO.P,LED2,1*%
%TO.N,SERVO_V+*%
X64062500Y-52000000D03*
%TO.P,LED2,2*%
%TO.N,GND*%
X65937500Y-52000000D03*
%TD*%
D11*
%TO.P,C3,1*%
%TO.N,SERVO_V+*%
X63225000Y-22000000D03*
%TO.P,C3,2*%
%TO.N,GND*%
X64775000Y-22000000D03*
%TD*%
D23*
%TO.P,J_ESTOP,1*%
%TO.N,E_STOP*%
X45000000Y-62000000D03*
D24*
%TO.P,J_ESTOP,2*%
%TO.N,GND*%
X45000000Y-64540000D03*
%TD*%
D10*
%TO.P,TP4,1*%
%TO.N,GND*%
X23000000Y-70000000D03*
%TD*%
%TO.P,TP7,1*%
%TO.N,OE*%
X38000000Y-70000000D03*
%TD*%
D23*
%TO.P,J_PCA9685_AUX,1*%
%TO.N,GND*%
X84000000Y-63000000D03*
D24*
%TO.P,J_PCA9685_AUX,2*%
%TO.N,OE*%
X86540000Y-63000000D03*
%TO.P,J_PCA9685_AUX,3*%
%TO.N,SCL*%
X89080000Y-63000000D03*
%TO.P,J_PCA9685_AUX,4*%
%TO.N,SDA*%
X91620000Y-63000000D03*
%TO.P,J_PCA9685_AUX,5*%
%TO.N,+3V3*%
X94160000Y-63000000D03*
%TO.P,J_PCA9685_AUX,6*%
%TO.N,SERVO_V+*%
X96700000Y-63000000D03*
%TD*%
D19*
%TO.P,MH_PCA4,1*%
%TO.N,GND*%
X93520000Y-67440000D03*
%TD*%
D18*
%TO.P,MH1,1*%
%TO.N,GND*%
X4000000Y-4000000D03*
%TD*%
D23*
%TO.P,J_UART,1*%
%TO.N,+3V3*%
X45000000Y-48000000D03*
D24*
%TO.P,J_UART,2*%
%TO.N,GND*%
X45000000Y-50540000D03*
%TO.P,J_UART,3*%
%TO.N,UART_TX*%
X45000000Y-53080000D03*
%TO.P,J_UART,4*%
%TO.N,UART_RX*%
X45000000Y-55620000D03*
%TD*%
D23*
%TO.P,J_SRV_EN,1*%
%TO.N,SERVO_EN*%
X52000000Y-62000000D03*
D24*
%TO.P,J_SRV_EN,2*%
%TO.N,GND*%
X52000000Y-64540000D03*
%TD*%
D18*
%TO.P,MH4,1*%
%TO.N,GND*%
X96000000Y-76000000D03*
%TD*%
D23*
%TO.P,J_GPIO_EXP,1*%
%TO.N,GPIO32*%
X56000000Y-48000000D03*
D24*
%TO.P,J_GPIO_EXP,2*%
%TO.N,GPIO33*%
X56000000Y-50540000D03*
%TO.P,J_GPIO_EXP,3*%
%TO.N,GPIO25*%
X56000000Y-53080000D03*
%TO.P,J_GPIO_EXP,4*%
%TO.N,GPIO26*%
X56000000Y-55620000D03*
%TO.P,J_GPIO_EXP,5*%
%TO.N,GPIO27*%
X56000000Y-58160000D03*
%TO.P,J_GPIO_EXP,6*%
%TO.N,GPIO14*%
X56000000Y-60700000D03*
%TO.P,J_GPIO_EXP,7*%
%TO.N,GPIO12*%
X56000000Y-63240000D03*
%TO.P,J_GPIO_EXP,8*%
%TO.N,GPIO13*%
X56000000Y-65780000D03*
%TO.P,J_GPIO_EXP,9*%
%TO.N,+3V3*%
X56000000Y-68320000D03*
%TO.P,J_GPIO_EXP,10*%
%TO.N,GND*%
X56000000Y-70860000D03*
%TD*%
D23*
%TO.P,J_VL53_2,1*%
%TO.N,+3V3*%
X19000000Y-56000000D03*
D24*
%TO.P,J_VL53_2,2*%
%TO.N,GND*%
X19000000Y-58540000D03*
%TO.P,J_VL53_2,3*%
%TO.N,SDA*%
X19000000Y-61080000D03*
%TO.P,J_VL53_2,4*%
%TO.N,SCL*%
X19000000Y-63620000D03*
%TO.P,J_VL53_2,5*%
%TO.N,XSHUT2*%
X19000000Y-66160000D03*
%TD*%
D23*
%TO.P,J_ESP32_RIGHT,1*%
%TO.N,5V_LOGIC*%
X33400000Y-11000000D03*
D24*
%TO.P,J_ESP32_RIGHT,2*%
%TO.N,GND*%
X33400000Y-13540000D03*
%TO.P,J_ESP32_RIGHT,3*%
%TO.N,N/C*%
X33400000Y-16080000D03*
%TO.P,J_ESP32_RIGHT,4*%
X33400000Y-18620000D03*
%TO.P,J_ESP32_RIGHT,5*%
X33400000Y-21160000D03*
%TO.P,J_ESP32_RIGHT,6*%
%TO.N,XSHUT1*%
X33400000Y-23700000D03*
%TO.P,J_ESP32_RIGHT,7*%
%TO.N,XSHUT2*%
X33400000Y-26240000D03*
%TO.P,J_ESP32_RIGHT,8*%
%TO.N,N/C*%
X33400000Y-28780000D03*
%TO.P,J_ESP32_RIGHT,9*%
X33400000Y-31320000D03*
%TO.P,J_ESP32_RIGHT,10*%
X33400000Y-33860000D03*
%TO.P,J_ESP32_RIGHT,11*%
%TO.N,SDA*%
X33400000Y-36400000D03*
%TO.P,J_ESP32_RIGHT,12*%
%TO.N,UART_RX*%
X33400000Y-38940000D03*
%TO.P,J_ESP32_RIGHT,13*%
%TO.N,UART_TX*%
X33400000Y-41480000D03*
%TO.P,J_ESP32_RIGHT,14*%
%TO.N,SCL*%
X33400000Y-44020000D03*
%TO.P,J_ESP32_RIGHT,15*%
%TO.N,N/C*%
X33400000Y-46560000D03*
%TD*%
D19*
%TO.P,MH_PCA3,1*%
%TO.N,GND*%
X74480000Y-67440000D03*
%TD*%
D13*
%TO.P,R5,1*%
%TO.N,N/C*%
X64175000Y-61000000D03*
%TO.P,R5,2*%
X65825000Y-61000000D03*
%TD*%
D23*
%TO.P,J_VL53_1,1*%
%TO.N,+3V3*%
X10000000Y-56000000D03*
D24*
%TO.P,J_VL53_1,2*%
%TO.N,GND*%
X10000000Y-58540000D03*
%TO.P,J_VL53_1,3*%
%TO.N,SDA*%
X10000000Y-61080000D03*
%TO.P,J_VL53_1,4*%
%TO.N,SCL*%
X10000000Y-63620000D03*
%TO.P,J_VL53_1,5*%
%TO.N,XSHUT1*%
X10000000Y-66160000D03*
%TD*%
D13*
%TO.P,R3,1*%
%TO.N,N/C*%
X64175000Y-49000000D03*
%TO.P,R3,2*%
X65825000Y-49000000D03*
%TD*%
D11*
%TO.P,C5,1*%
%TO.N,+3V3*%
X51225000Y-34000000D03*
%TO.P,C5,2*%
%TO.N,GND*%
X52775000Y-34000000D03*
%TD*%
D13*
%TO.P,R6,1*%
%TO.N,N/C*%
X64175000Y-67000000D03*
%TO.P,R6,2*%
X65825000Y-67000000D03*
%TD*%
D27*
%TO.N,SERVO_V+*%
X48000000Y-10000000D02*
X58000000Y-10000000D01*
X58000000Y-16000000D02*
X48000000Y-22000000D01*
X58000000Y-16000000D02*
X80000000Y-16000000D01*
X58000000Y-10000000D02*
X58000000Y-16000000D01*
D28*
%TO.N,+3V3*%
X58000000Y-31000000D02*
X58000000Y-26000000D01*
X58000000Y-26000000D02*
X82000000Y-16000000D01*
X58000000Y-26000000D02*
X33400000Y-11000000D01*
D29*
%TO.N,SDA*%
X42000000Y-36400000D02*
X78000000Y-16000000D01*
X33400000Y-36400000D02*
X42000000Y-36400000D01*
%TO.N,SCL*%
X42000000Y-44000000D02*
X76000000Y-16000000D01*
X33400000Y-44000000D02*
X42000000Y-44000000D01*
%TD*%
M02*
