%TF.GenerationSoftware,KiCad,Pcbnew,7.0.11+dfsg-1build4*%
%TF.CreationDate,2026-09-16T04:08:54+05:30*%
%TF.ProjectId,robotic_arm_motherboard,726f626f-7469-4635-9f61-726d5f6d6f74,rev?*%
%TF.SameCoordinates,Original*%
%TF.FileFunction,Copper,L2,Bot*%
%TF.FilePolarity,Positive*%
%FSLAX46Y46*%
G04 Gerber Fmt 4.6, Leading zero omitted, Abs format (unit mm)*
G04 Created by KiCad (PCBNEW 7.0.11+dfsg-1build4) date 2026-09-16 04:08:54*
%MOMM*%
%LPD*%
G01*
G04 APERTURE LIST*
%TA.AperFunction,ComponentPad*%
%ADD10R,3.800000X3.800000*%
%TD*%
%TA.AperFunction,ComponentPad*%
%ADD11C,4.000000*%
%TD*%
%TA.AperFunction,ComponentPad*%
%ADD12C,6.400000*%
%TD*%
%TA.AperFunction,ComponentPad*%
%ADD13C,5.400000*%
%TD*%
%TA.AperFunction,ComponentPad*%
%ADD14R,1.700000X1.700000*%
%TD*%
%TA.AperFunction,ComponentPad*%
%ADD15O,1.700000X1.700000*%
%TD*%
%TA.AperFunction,ComponentPad*%
%ADD16R,2.000000X2.000000*%
%TD*%
%TA.AperFunction,ComponentPad*%
%ADD17C,2.000000*%
%TD*%
G04 APERTURE END LIST*
D10*
%TO.P,J_SERVO_PWR,1*%
%TO.N,SERVO_V+*%
X48000000Y-10000000D03*
D11*
%TO.P,J_SERVO_PWR,2*%
%TO.N,GND*%
X53000000Y-10000000D03*
%TD*%
D12*
%TO.P,MH2,1*%
%TO.N,GND*%
X96000000Y-4000000D03*
%TD*%
D13*
%TO.P,MH_PCA2,1*%
%TO.N,GND*%
X93520000Y-11560000D03*
%TD*%
D14*
%TO.P,J_I2C_EXP,1*%
%TO.N,+3V3*%
X32000000Y-56000000D03*
D15*
%TO.P,J_I2C_EXP,2*%
%TO.N,GND*%
X32000000Y-58540000D03*
%TO.P,J_I2C_EXP,3*%
%TO.N,SDA*%
X32000000Y-61080000D03*
%TO.P,J_I2C_EXP,4*%
%TO.N,SCL*%
X32000000Y-63620000D03*
%TD*%
D12*
%TO.P,MH3,1*%
%TO.N,GND*%
X4000000Y-76000000D03*
%TD*%
D16*
%TO.P,C1,1*%
%TO.N,SERVO_V+*%
X48000000Y-22000000D03*
D17*
%TO.P,C1,2*%
%TO.N,GND*%
X53000000Y-22000000D03*
%TD*%
D13*
%TO.P,MH_PCA1,1*%
%TO.N,GND*%
X74480000Y-11560000D03*
%TD*%
D14*
%TO.P,J_ESP32_LEFT,1*%
%TO.N,+3V3*%
X8000000Y-11000000D03*
D15*
%TO.P,J_ESP32_LEFT,2*%
%TO.N,N/C*%
X8000000Y-13540000D03*
%TO.P,J_ESP32_LEFT,3*%
X8000000Y-16080000D03*
%TO.P,J_ESP32_LEFT,4*%
X8000000Y-18620000D03*
%TO.P,J_ESP32_LEFT,5*%
X8000000Y-21160000D03*
%TO.P,J_ESP32_LEFT,6*%
X8000000Y-23700000D03*
%TO.P,J_ESP32_LEFT,7*%
%TO.N,GPIO32*%
X8000000Y-26240000D03*
%TO.P,J_ESP32_LEFT,8*%
%TO.N,GPIO33*%
X8000000Y-28780000D03*
%TO.P,J_ESP32_LEFT,9*%
%TO.N,GPIO25*%
X8000000Y-31320000D03*
%TO.P,J_ESP32_LEFT,10*%
%TO.N,GPIO26*%
X8000000Y-33860000D03*
%TO.P,J_ESP32_LEFT,11*%
%TO.N,GPIO27*%
X8000000Y-36400000D03*
%TO.P,J_ESP32_LEFT,12*%
%TO.N,GPIO14*%
X8000000Y-38940000D03*
%TO.P,J_ESP32_LEFT,13*%
%TO.N,GPIO12*%
X8000000Y-41480000D03*
%TO.P,J_ESP32_LEFT,14*%
%TO.N,GND*%
X8000000Y-44020000D03*
%TO.P,J_ESP32_LEFT,15*%
%TO.N,GPIO13*%
X8000000Y-46560000D03*
%TD*%
D14*
%TO.P,J_PCA9685_CTRL,1*%
%TO.N,GND*%
X84000000Y-16000000D03*
D15*
%TO.P,J_PCA9685_CTRL,2*%
%TO.N,OE*%
X86540000Y-16000000D03*
%TO.P,J_PCA9685_CTRL,3*%
%TO.N,SCL*%
X89080000Y-16000000D03*
%TO.P,J_PCA9685_CTRL,4*%
%TO.N,SDA*%
X91620000Y-16000000D03*
%TO.P,J_PCA9685_CTRL,5*%
%TO.N,+3V3*%
X94160000Y-16000000D03*
%TO.P,J_PCA9685_CTRL,6*%
%TO.N,SERVO_V+*%
X96700000Y-16000000D03*
%TD*%
D14*
%TO.P,J_ESTOP,1*%
%TO.N,E_STOP*%
X45000000Y-62000000D03*
D15*
%TO.P,J_ESTOP,2*%
%TO.N,GND*%
X45000000Y-64540000D03*
%TD*%
D14*
%TO.P,J_PCA9685_AUX,1*%
%TO.N,GND*%
X84000000Y-63000000D03*
D15*
%TO.P,J_PCA9685_AUX,2*%
%TO.N,OE*%
X86540000Y-63000000D03*
%TO.P,J_PCA9685_AUX,3*%
%TO.N,SCL*%
X89080000Y-63000000D03*
%TO.P,J_PCA9685_AUX,4*%
%TO.N,SDA*%
X91620000Y-63000000D03*
%TO.P,J_PCA9685_AUX,5*%
%TO.N,+3V3*%
X94160000Y-63000000D03*
%TO.P,J_PCA9685_AUX,6*%
%TO.N,SERVO_V+*%
X96700000Y-63000000D03*
%TD*%
D13*
%TO.P,MH_PCA4,1*%
%TO.N,GND*%
X93520000Y-67440000D03*
%TD*%
D12*
%TO.P,MH1,1*%
%TO.N,GND*%
X4000000Y-4000000D03*
%TD*%
D14*
%TO.P,J_UART,1*%
%TO.N,+3V3*%
X45000000Y-48000000D03*
D15*
%TO.P,J_UART,2*%
%TO.N,GND*%
X45000000Y-50540000D03*
%TO.P,J_UART,3*%
%TO.N,UART_TX*%
X45000000Y-53080000D03*
%TO.P,J_UART,4*%
%TO.N,UART_RX*%
X45000000Y-55620000D03*
%TD*%
D14*
%TO.P,J_SRV_EN,1*%
%TO.N,SERVO_EN*%
X52000000Y-62000000D03*
D15*
%TO.P,J_SRV_EN,2*%
%TO.N,GND*%
X52000000Y-64540000D03*
%TD*%
D12*
%TO.P,MH4,1*%
%TO.N,GND*%
X96000000Y-76000000D03*
%TD*%
D14*
%TO.P,J_GPIO_EXP,1*%
%TO.N,GPIO32*%
X56000000Y-48000000D03*
D15*
%TO.P,J_GPIO_EXP,2*%
%TO.N,GPIO33*%
X56000000Y-50540000D03*
%TO.P,J_GPIO_EXP,3*%
%TO.N,GPIO25*%
X56000000Y-53080000D03*
%TO.P,J_GPIO_EXP,4*%
%TO.N,GPIO26*%
X56000000Y-55620000D03*
%TO.P,J_GPIO_EXP,5*%
%TO.N,GPIO27*%
X56000000Y-58160000D03*
%TO.P,J_GPIO_EXP,6*%
%TO.N,GPIO14*%
X56000000Y-60700000D03*
%TO.P,J_GPIO_EXP,7*%
%TO.N,GPIO12*%
X56000000Y-63240000D03*
%TO.P,J_GPIO_EXP,8*%
%TO.N,GPIO13*%
X56000000Y-65780000D03*
%TO.P,J_GPIO_EXP,9*%
%TO.N,+3V3*%
X56000000Y-68320000D03*
%TO.P,J_GPIO_EXP,10*%
%TO.N,GND*%
X56000000Y-70860000D03*
%TD*%
D14*
%TO.P,J_VL53_2,1*%
%TO.N,+3V3*%
X19000000Y-56000000D03*
D15*
%TO.P,J_VL53_2,2*%
%TO.N,GND*%
X19000000Y-58540000D03*
%TO.P,J_VL53_2,3*%
%TO.N,SDA*%
X19000000Y-61080000D03*
%TO.P,J_VL53_2,4*%
%TO.N,SCL*%
X19000000Y-63620000D03*
%TO.P,J_VL53_2,5*%
%TO.N,XSHUT2*%
X19000000Y-66160000D03*
%TD*%
D14*
%TO.P,J_ESP32_RIGHT,1*%
%TO.N,5V_LOGIC*%
X33400000Y-11000000D03*
D15*
%TO.P,J_ESP32_RIGHT,2*%
%TO.N,GND*%
X33400000Y-13540000D03*
%TO.P,J_ESP32_RIGHT,3*%
%TO.N,N/C*%
X33400000Y-16080000D03*
%TO.P,J_ESP32_RIGHT,4*%
X33400000Y-18620000D03*
%TO.P,J_ESP32_RIGHT,5*%
X33400000Y-21160000D03*
%TO.P,J_ESP32_RIGHT,6*%
%TO.N,XSHUT1*%
X33400000Y-23700000D03*
%TO.P,J_ESP32_RIGHT,7*%
%TO.N,XSHUT2*%
X33400000Y-26240000D03*
%TO.P,J_ESP32_RIGHT,8*%
%TO.N,N/C*%
X33400000Y-28780000D03*
%TO.P,J_ESP32_RIGHT,9*%
X33400000Y-31320000D03*
%TO.P,J_ESP32_RIGHT,10*%
X33400000Y-33860000D03*
%TO.P,J_ESP32_RIGHT,11*%
%TO.N,SDA*%
X33400000Y-36400000D03*
%TO.P,J_ESP32_RIGHT,12*%
%TO.N,UART_RX*%
X33400000Y-38940000D03*
%TO.P,J_ESP32_RIGHT,13*%
%TO.N,UART_TX*%
X33400000Y-41480000D03*
%TO.P,J_ESP32_RIGHT,14*%
%TO.N,SCL*%
X33400000Y-44020000D03*
%TO.P,J_ESP32_RIGHT,15*%
%TO.N,N/C*%
X33400000Y-46560000D03*
%TD*%
D13*
%TO.P,MH_PCA3,1*%
%TO.N,GND*%
X74480000Y-67440000D03*
%TD*%
D14*
%TO.P,J_VL53_1,1*%
%TO.N,+3V3*%
X10000000Y-56000000D03*
D15*
%TO.P,J_VL53_1,2*%
%TO.N,GND*%
X10000000Y-58540000D03*
%TO.P,J_VL53_1,3*%
%TO.N,SDA*%
X10000000Y-61080000D03*
%TO.P,J_VL53_1,4*%
%TO.N,SCL*%
X10000000Y-63620000D03*
%TO.P,J_VL53_1,5*%
%TO.N,XSHUT1*%
X10000000Y-66160000D03*
%TD*%
M02*
