M48
; DRILL file {KiCad 7.0.11+dfsg-1build4} date Wed 16 Sep 2026 04:08:54 AM IST
; FORMAT={-:-/ absolute / metric / decimal}
; #@! TF.CreationDate,2026-09-16T04:08:54+05:30
; #@! TF.GenerationSoftware,Kicad,Pcbnew,7.0.11+dfsg-1build4
; #@! TF.FileFunction,MixedPlating,1,2
FMAT,2
METRIC
; #@! TA.AperFunction,Plated,PTH,ComponentDrill
T1C1.000
; #@! TA.AperFunction,Plated,PTH,ComponentDrill
T2C2.700
; #@! TA.AperFunction,Plated,PTH,ComponentDrill
T3C3.200
%
G90
G05
T1
X8.0Y-11.0
X8.0Y-13.54
X8.0Y-16.08
X8.0Y-18.62
X8.0Y-21.16
X8.0Y-23.7
X8.0Y-26.24
X8.0Y-28.78
X8.0Y-31.32
X8.0Y-33.86
X8.0Y-36.4
X8.0Y-38.94
X8.0Y-41.48
X8.0Y-44.02
X8.0Y-46.56
X10.0Y-56.0
X10.0Y-58.54
X10.0Y-61.08
X10.0Y-63.62
X10.0Y-66.16
X19.0Y-56.0
X19.0Y-58.54
X19.0Y-61.08
X19.0Y-63.62
X19.0Y-66.16
X32.0Y-56.0
X32.0Y-58.54
X32.0Y-61.08
X32.0Y-63.62
X33.4Y-11.0
X33.4Y-13.54
X33.4Y-16.08
X33.4Y-18.62
X33.4Y-21.16
X33.4Y-23.7
X33.4Y-26.24
X33.4Y-28.78
X33.4Y-31.32
X33.4Y-33.86
X33.4Y-36.4
X33.4Y-38.94
X33.4Y-41.48
X33.4Y-44.02
X33.4Y-46.56
X45.0Y-48.0
X45.0Y-50.54
X45.0Y-53.08
X45.0Y-55.62
X45.0Y-62.0
X45.0Y-64.54
X48.0Y-22.0
X52.0Y-62.0
X52.0Y-64.54
X53.0Y-22.0
X56.0Y-48.0
X56.0Y-50.54
X56.0Y-53.08
X56.0Y-55.62
X56.0Y-58.16
X56.0Y-60.7
X56.0Y-63.24
X56.0Y-65.78
X56.0Y-68.32
X56.0Y-70.86
X84.0Y-16.0
X84.0Y-63.0
X86.54Y-16.0
X86.54Y-63.0
X89.08Y-16.0
X89.08Y-63.0
X91.62Y-16.0
X91.62Y-63.0
X94.16Y-16.0
X94.16Y-63.0
X96.7Y-16.0
X96.7Y-63.0
T2
X48.0Y-10.0
X53.0Y-10.0
X74.48Y-11.56
X74.48Y-67.44
X93.52Y-11.56
X93.52Y-67.44
T3
X4.0Y-4.0
X4.0Y-76.0
X96.0Y-4.0
X96.0Y-76.0
M30
